<?xml version="1.0" encoding="UTF-8" standalone="no"?>
<!DOCTYPE svg PUBLIC "-//W3C//DTD SVG 1.1//EN"
 "http://www.w3.org/Graphics/SVG/1.1/DTD/svg11.dtd">
<!-- Generated by graphviz version 2.44.1 (20220725.2034)
 -->
<!-- Title: opp Pages: 1 -->
<svg width="363pt" height="82pt"
 viewBox="0.00 0.00 362.50 82.00" xmlns="http://www.w3.org/2000/svg" xmlns:xlink="http://www.w3.org/1999/xlink">
<g id="graph0" class="graph" transform="scale(1 1) rotate(0) translate(4 78)">
<title>opp</title>
<polygon fill="transparent" stroke="transparent" points="-4,4 -4,-78 358.5,-78 358.5,4 -4,4"/>
<!-- CarSensingNetwork2 -->
<g id="node1" class="node">
<title>CarSensingNetwork2</title>
<g id="a_node1"><a xlink:href="pecsn_project_tess.simulations.CarSensingNetwork2.html" xlink:title="Network CarSensingNetwork2" target="_parent">
<polygon fill="#9090ff" stroke="black" points="224,-74 114,-74 114,-55 224,-55 224,-74"/>
<text text-anchor="middle" x="169" y="-62" font-family="Helvetica,sans-Serif" font-size="10.00">CarSensingNetwork2</text>
</a>
</g>
</g>
<!-- WirelessHost -->
<g id="node2" class="node">
<title>WirelessHost</title>
<g id="a_node2"><a xlink:href="../../../inet4.5/doc/neddoc/inet.node.inet.WirelessHost.html" xlink:title="Compound Module WirelessHost" target="_parent">
<polygon fill="#fffcaf" stroke="black" points="76,-19 0,-19 0,0 76,0 76,-19"/>
<text text-anchor="middle" x="38" y="-7" font-family="Helvetica,sans-Serif" font-size="10.00">WirelessHost</text>
</a>
</g>
</g>
<!-- CarSensingNetwork2&#45;&gt;WirelessHost -->
<g id="edge1" class="edge">
<title>CarSensingNetwork2&#45;&gt;WirelessHost</title>
<path fill="none" stroke="black" d="M147.95,-54.98C126.59,-46.34 93.3,-32.87 68.94,-23.02"/>
<polygon fill="black" stroke="black" points="70.01,-19.68 59.43,-19.17 67.39,-26.17 70.01,-19.68"/>
</g>
<!-- Ieee80211ScalarRadioMedium -->
<g id="node3" class="node">
<title>Ieee80211ScalarRadioMedium</title>
<g id="a_node3"><a xlink:href="../../../inet4.5/doc/neddoc/inet.physicallayer.wireless.ieee80211.packetlevel.Ieee80211ScalarRadioMedium.html" xlink:title="Compound Module Ieee80211ScalarRadioMedium" target="_parent">
<polygon fill="#fffcaf" stroke="black" points="243.5,-19 94.5,-19 94.5,0 243.5,0 243.5,-19"/>
<text text-anchor="middle" x="169" y="-7" font-family="Helvetica,sans-Serif" font-size="10.00">Ieee80211ScalarRadioMedium</text>
</a>
</g>
</g>
<!-- CarSensingNetwork2&#45;&gt;Ieee80211ScalarRadioMedium -->
<g id="edge2" class="edge">
<title>CarSensingNetwork2&#45;&gt;Ieee80211ScalarRadioMedium</title>
<path fill="none" stroke="black" d="M169,-54.75C169,-47.8 169,-37.85 169,-29.13"/>
<polygon fill="black" stroke="black" points="172.5,-29.09 169,-19.09 165.5,-29.09 172.5,-29.09"/>
</g>
<!-- MobilityVisualizer -->
<g id="node4" class="node">
<title>MobilityVisualizer</title>
<g id="a_node4"><a xlink:href="../../../inet4.5/doc/neddoc/inet.visualizer.common.MobilityVisualizer.html" xlink:title="Compound Module MobilityVisualizer" target="_parent">
<polygon fill="#fffcaf" stroke="black" points="354.5,-19 261.5,-19 261.5,0 354.5,0 354.5,-19"/>
<text text-anchor="middle" x="308" y="-7" font-family="Helvetica,sans-Serif" font-size="10.00">MobilityVisualizer</text>
</a>
</g>
</g>
<!-- CarSensingNetwork2&#45;&gt;MobilityVisualizer -->
<g id="edge3" class="edge">
<title>CarSensingNetwork2&#45;&gt;MobilityVisualizer</title>
<path fill="none" stroke="black" d="M191.33,-54.98C214.2,-46.27 249.96,-32.63 275.86,-22.75"/>
<polygon fill="black" stroke="black" points="277.16,-26 285.26,-19.17 274.67,-19.46 277.16,-26"/>
</g>
</g>
</svg>
