<?xml version="1.0" encoding="UTF-8" standalone="no"?>
<!DOCTYPE svg PUBLIC "-//W3C//DTD SVG 1.1//EN"
 "http://www.w3.org/Graphics/SVG/1.1/DTD/svg11.dtd">
<!-- Generated by graphviz version 2.44.1 (20220725.2034)
 -->
<!-- Title: opp Pages: 1 -->
<svg width="136pt" height="137pt"
 viewBox="0.00 0.00 136.00 137.00" xmlns="http://www.w3.org/2000/svg" xmlns:xlink="http://www.w3.org/1999/xlink">
<g id="graph0" class="graph" transform="scale(1 1) rotate(0) translate(4 133)">
<title>opp</title>
<polygon fill="transparent" stroke="transparent" points="-4,4 -4,-133 132,-133 132,4 -4,4"/>
<!-- MobiltiyModule -->
<g id="node1" class="node">
<title>MobiltiyModule</title>
<g id="a_node1"><a xlink:href="pecsn_project_tess.MobiltiyModule.html" xlink:title="Compound Module MobiltiyModule" target="_parent">
<polygon fill="#fff700" stroke="black" points="105,-74 23,-74 23,-55 105,-55 105,-74"/>
<text text-anchor="middle" x="64" y="-62" font-family="Helvetica,sans-Serif" font-size="10.00">MobiltiyModule</text>
</a>
</g>
</g>
<!-- RandomWaypointMobility -->
<g id="node2" class="node">
<title>RandomWaypointMobility</title>
<g id="a_node2"><a xlink:href="../../../inet4.5/doc/neddoc/inet.mobility.single.RandomWaypointMobility.html" xlink:title="Simple Module RandomWaypointMobility" target="_parent">
<polygon fill="#fffcaf" stroke="black" points="128,-19 0,-19 0,0 128,0 128,-19"/>
<text text-anchor="middle" x="64" y="-7" font-family="Helvetica,sans-Serif" font-size="10.00">RandomWaypointMobility</text>
</a>
</g>
</g>
<!-- MobiltiyModule&#45;&gt;RandomWaypointMobility -->
<g id="edge1" class="edge">
<title>MobiltiyModule&#45;&gt;RandomWaypointMobility</title>
<path fill="none" stroke="black" d="M64,-54.75C64,-47.8 64,-37.85 64,-29.13"/>
<polygon fill="black" stroke="black" points="67.5,-29.09 64,-19.09 60.5,-29.09 67.5,-29.09"/>
</g>
<!-- Car -->
<g id="node3" class="node">
<title>Car</title>
<g id="a_node3"><a xlink:href="pecsn_project_tess.Car.html" xlink:title="Compound Module Car" target="_parent">
<polygon fill="#fffcaf" stroke="black" points="91,-129 37,-129 37,-110 91,-110 91,-129"/>
<text text-anchor="middle" x="64" y="-117" font-family="Helvetica,sans-Serif" font-size="10.00">Car</text>
</a>
</g>
</g>
<!-- Car&#45;&gt;MobiltiyModule -->
<g id="edge2" class="edge">
<title>Car&#45;&gt;MobiltiyModule</title>
<path fill="none" stroke="black" d="M64,-109.75C64,-102.8 64,-92.85 64,-84.13"/>
<polygon fill="black" stroke="black" points="67.5,-84.09 64,-74.09 60.5,-84.09 67.5,-84.09"/>
</g>
</g>
</svg>
