<?xml version="1.0" encoding="UTF-8" standalone="no"?>
<!DOCTYPE svg PUBLIC "-//W3C//DTD SVG 1.1//EN"
 "http://www.w3.org/Graphics/SVG/1.1/DTD/svg11.dtd">
<!-- Generated by graphviz version 2.44.1 (20220725.2034)
 -->
<!-- Title: opp Pages: 1 -->
<svg width="192pt" height="137pt"
 viewBox="0.00 0.00 191.50 137.00" xmlns="http://www.w3.org/2000/svg" xmlns:xlink="http://www.w3.org/1999/xlink">
<g id="graph0" class="graph" transform="scale(1 1) rotate(0) translate(4 133)">
<title>opp</title>
<polygon fill="transparent" stroke="transparent" points="-4,4 -4,-133 187.5,-133 187.5,4 -4,4"/>
<!-- Car -->
<g id="node1" class="node">
<title>Car</title>
<g id="a_node1"><a xlink:href="pecsn_project_tess.Car.html" xlink:title="Compound Module Car" target="_parent">
<polygon fill="#fff700" stroke="black" points="118,-74 64,-74 64,-55 118,-55 118,-74"/>
<text text-anchor="middle" x="91" y="-62" font-family="Helvetica,sans-Serif" font-size="10.00">Car</text>
</a>
</g>
</g>
<!-- MobiltiyModule -->
<g id="node2" class="node">
<title>MobiltiyModule</title>
<g id="a_node2"><a xlink:href="pecsn_project_tess.MobiltiyModule.html" xlink:title="Compound Module MobiltiyModule" target="_parent">
<polygon fill="#fffcaf" stroke="black" points="82,-19 0,-19 0,0 82,0 82,-19"/>
<text text-anchor="middle" x="41" y="-7" font-family="Helvetica,sans-Serif" font-size="10.00">MobiltiyModule</text>
</a>
</g>
</g>
<!-- Car&#45;&gt;MobiltiyModule -->
<g id="edge1" class="edge">
<title>Car&#45;&gt;MobiltiyModule</title>
<path fill="none" stroke="black" d="M82.74,-54.75C75.54,-47.11 64.89,-35.82 56.15,-26.56"/>
<polygon fill="black" stroke="black" points="58.51,-23.96 49.1,-19.09 53.42,-28.76 58.51,-23.96"/>
</g>
<!-- SensingModule -->
<g id="node3" class="node">
<title>SensingModule</title>
<g id="a_node3"><a xlink:href="pecsn_project_tess.SensingModule.html" xlink:title="Simple Module SensingModule" target="_parent">
<polygon fill="#fffcaf" stroke="black" points="183.5,-19 100.5,-19 100.5,0 183.5,0 183.5,-19"/>
<text text-anchor="middle" x="142" y="-7" font-family="Helvetica,sans-Serif" font-size="10.00">SensingModule</text>
</a>
</g>
</g>
<!-- Car&#45;&gt;SensingModule -->
<g id="edge2" class="edge">
<title>Car&#45;&gt;SensingModule</title>
<path fill="none" stroke="black" d="M99.42,-54.75C106.77,-47.11 117.63,-35.82 126.54,-26.56"/>
<polygon fill="black" stroke="black" points="129.32,-28.72 133.74,-19.09 124.28,-23.87 129.32,-28.72"/>
</g>
<!-- CarSensingNetwork -->
<g id="node4" class="node">
<title>CarSensingNetwork</title>
<g id="a_node4"><a xlink:href="pecsn_project_tess.simulations.CarSensingNetwork.html" xlink:title="Network CarSensingNetwork" target="_parent">
<polygon fill="#d0d0ff" stroke="black" points="143,-129 39,-129 39,-110 143,-110 143,-129"/>
<text text-anchor="middle" x="91" y="-117" font-family="Helvetica,sans-Serif" font-size="10.00">CarSensingNetwork</text>
</a>
</g>
</g>
<!-- CarSensingNetwork&#45;&gt;Car -->
<g id="edge3" class="edge">
<title>CarSensingNetwork&#45;&gt;Car</title>
<path fill="none" stroke="black" d="M91,-109.75C91,-102.8 91,-92.85 91,-84.13"/>
<polygon fill="black" stroke="black" points="94.5,-84.09 91,-74.09 87.5,-84.09 94.5,-84.09"/>
</g>
</g>
</svg>
