<?xml version="1.0" encoding="UTF-8" standalone="no"?>
<!DOCTYPE svg PUBLIC "-//W3C//DTD SVG 1.1//EN"
 "http://www.w3.org/Graphics/SVG/1.1/DTD/svg11.dtd">
<!-- Generated by graphviz version 2.44.1 (20220725.2034)
 -->
<!-- Title: opp Pages: 1 -->
<svg width="174pt" height="82pt"
 viewBox="0.00 0.00 173.50 82.00" xmlns="http://www.w3.org/2000/svg" xmlns:xlink="http://www.w3.org/1999/xlink">
<g id="graph0" class="graph" transform="scale(1 1) rotate(0) translate(4 78)">
<title>opp</title>
<polygon fill="transparent" stroke="transparent" points="-4,4 -4,-78 169.5,-78 169.5,4 -4,4"/>
<!-- CarSensingNetwork -->
<g id="node1" class="node">
<title>CarSensingNetwork</title>
<g id="a_node1"><a xlink:href="pecsn_project_tess.simulations.CarSensingNetwork.html" xlink:title="Network CarSensingNetwork" target="_parent">
<polygon fill="#9090ff" stroke="black" points="125,-74 21,-74 21,-55 125,-55 125,-74"/>
<text text-anchor="middle" x="73" y="-62" font-family="Helvetica,sans-Serif" font-size="10.00">CarSensingNetwork</text>
</a>
</g>
</g>
<!-- Car -->
<g id="node2" class="node">
<title>Car</title>
<g id="a_node2"><a xlink:href="pecsn_project_tess.Car.html" xlink:title="Compound Module Car" target="_parent">
<polygon fill="#fffcaf" stroke="black" points="54,-19 0,-19 0,0 54,0 54,-19"/>
<text text-anchor="middle" x="27" y="-7" font-family="Helvetica,sans-Serif" font-size="10.00">Car</text>
</a>
</g>
</g>
<!-- CarSensingNetwork&#45;&gt;Car -->
<g id="edge1" class="edge">
<title>CarSensingNetwork&#45;&gt;Car</title>
<path fill="none" stroke="black" d="M65.4,-54.75C58.84,-47.18 49.18,-36.05 41.19,-26.84"/>
<polygon fill="black" stroke="black" points="43.65,-24.35 34.45,-19.09 38.37,-28.94 43.65,-24.35"/>
</g>
<!-- MobilityVisualizer -->
<g id="node3" class="node">
<title>MobilityVisualizer</title>
<g id="a_node3"><a xlink:href="../../../inet4.5/doc/neddoc/inet.visualizer.common.MobilityVisualizer.html" xlink:title="Compound Module MobilityVisualizer" target="_parent">
<polygon fill="#fffcaf" stroke="black" points="165.5,-19 72.5,-19 72.5,0 165.5,0 165.5,-19"/>
<text text-anchor="middle" x="119" y="-7" font-family="Helvetica,sans-Serif" font-size="10.00">MobilityVisualizer</text>
</a>
</g>
</g>
<!-- CarSensingNetwork&#45;&gt;MobilityVisualizer -->
<g id="edge2" class="edge">
<title>CarSensingNetwork&#45;&gt;MobilityVisualizer</title>
<path fill="none" stroke="black" d="M80.6,-54.75C87.16,-47.18 96.82,-36.05 104.81,-26.84"/>
<polygon fill="black" stroke="black" points="107.63,-28.94 111.55,-19.09 102.35,-24.35 107.63,-28.94"/>
</g>
</g>
</svg>
